<svg id="visual" viewBox="0 0 900 600" width="900" height="600" xmlns="http://www.w3.org/2000/svg" xmlns:xlink="http://www.w3.org/1999/xlink" version="1.1"><rect x="0" y="0" width="900" height="600" fill="#009473"></rect><path d="M0 271L15 289.8C30 308.7 60 346.3 90 347.3C120 348.3 150 312.7 180 295C210 277.3 240 277.7 270 267.2C300 256.7 330 235.3 360 246C390 256.7 420 299.3 450 298.7C480 298 510 254 540 258.8C570 263.7 600 317.3 630 327.7C660 338 690 305 720 294.3C750 283.7 780 295.3 810 297.5C840 299.7 870 292.3 885 288.7L900 285L900 601L885 601C870 601 840 601 810 601C780 601 750 601 720 601C690 601 660 601 630 601C600 601 570 601 540 601C510 601 480 601 450 601C420 601 390 601 360 601C330 601 300 601 270 601C240 601 210 601 180 601C150 601 120 601 90 601C60 601 30 601 15 601L0 601Z" fill="#001122" stroke-linecap="round" stroke-linejoin="miter"></path></svg>